<svg width="71" height="71" viewBox="0 0 71 71" fill="none" xmlns="http://www.w3.org/2000/svg">
<rect width="71" height="71" fill="white"/>
<path fill-rule="evenodd" clip-rule="evenodd" d="M27.1895 69.757H6.46449C3.45949 69.757 1.00049 67.298 1.00049 64.292V22.465C1.00049 19.459 3.45949 17 6.46449 17H27.1895C30.1955 17 32.6545 19.459 32.6545 22.465V64.292C32.6545 67.298 30.1955 69.757 27.1895 69.757Z" stroke="#B01AA7" stroke-width="2" stroke-linecap="round" stroke-linejoin="round"/>
<mask id="mask0" mask-type="alpha" maskUnits="userSpaceOnUse" x="0" y="16" width="34" height="55">
<path fill-rule="evenodd" clip-rule="evenodd" d="M0 70.757H33.654V16H0V70.757Z" fill="white"/>
</mask>
<g mask="url(#mask0)">
<path fill-rule="evenodd" clip-rule="evenodd" d="M4.76318 58.4509H28.8922V22.0549H4.76318V58.4509Z" stroke="#B01AA7" stroke-width="2" stroke-linecap="round" stroke-linejoin="round"/>
<path d="M12.876 63.7454H20.001" stroke="#B01AA7" stroke-width="2" stroke-linecap="round" stroke-linejoin="round"/>
<path fill-rule="evenodd" clip-rule="evenodd" d="M19.1982 47.844C19.1982 49.448 17.8972 50.749 16.2922 50.749C14.6872 50.749 13.3862 49.448 13.3862 47.844C13.3862 46.24 14.6872 44.939 16.2922 44.939C17.8972 44.939 19.1982 46.24 19.1982 47.844Z" stroke="#B01AA7" stroke-width="2" stroke-linecap="round" stroke-linejoin="round"/>
<path d="M16.254 44.4671V31.2451H19.702" stroke="#B01AA7" stroke-width="2" stroke-linecap="round" stroke-linejoin="round"/>
<path d="M16.2539 35.2034H18.4519" stroke="#B01AA7" stroke-width="2" stroke-linecap="round" stroke-linejoin="round"/>
<path d="M16.2539 38.9124H19.7019" stroke="#B01AA7" stroke-width="2" stroke-linecap="round" stroke-linejoin="round"/>
</g>
</svg>
