<svg width="71" height="72" viewBox="0 0 71 72" fill="none" xmlns="http://www.w3.org/2000/svg">
<rect width="71" height="71" fill="white"/>
<path d="M38.9737 70.9103H8.87573V45.2783H21.8397" stroke="#B01AA7" stroke-width="2" stroke-linecap="round" stroke-linejoin="round"/>
<path d="M21.84 45.2783H54.373V70.9103H35.73" stroke="#B01AA7" stroke-width="2" stroke-linecap="round" stroke-linejoin="round"/>
<path d="M33.878 65.4023C33.168 65.6313 32.41 65.7543 31.624 65.7543C27.566 65.7543 24.274 62.4643 24.274 58.4043C24.274 57.6813 24.379 56.9823 24.573 56.3223" stroke="#B01AA7" stroke-width="2" stroke-linecap="round" stroke-linejoin="round"/>
<path d="M28.3751 51.8104C29.3541 51.3264 30.4581 51.0544 31.6241 51.0544C35.6841 51.0544 38.9741 54.3454 38.9741 58.4044C38.9741 59.4184 38.7691 60.3854 38.3961 61.2654" stroke="#B01AA7" stroke-width="2" stroke-linecap="round" stroke-linejoin="round"/>
<path d="M24.627 60.6582C24.398 59.9482 24.274 59.1902 24.274 58.4042C24.274 54.3462 27.565 51.0542 31.624 51.0542C32.348 51.0542 33.046 51.1592 33.706 51.3532" stroke="#B01AA7" stroke-width="2" stroke-linecap="round" stroke-linejoin="round"/>
<path d="M38.2188 55.1553C38.7018 56.1343 38.9738 57.2383 38.9738 58.4043C38.9738 62.4643 35.6838 65.7543 31.6238 65.7543C30.6098 65.7543 29.6428 65.5493 28.7638 65.1763" stroke="#B01AA7" stroke-width="2" stroke-linecap="round" stroke-linejoin="round"/>
<path d="M54.3731 52.6278C50.3131 52.6278 47.0221 49.3378 47.0221 45.2778" stroke="#B01AA7" stroke-width="2" stroke-linecap="round" stroke-linejoin="round"/>
<path d="M47.0225 70.2879C47.0225 69.6849 47.1205 69.7229 47.3005 69.1689C48.1755 66.5009 51.0105 64.5459 54.3735 64.5459" stroke="#B01AA7" stroke-width="2" stroke-linecap="round" stroke-linejoin="round"/>
<path d="M8.8761 63.5596C12.9361 63.5596 16.2261 66.8506 16.2261 70.9106" stroke="#B01AA7" stroke-width="2" stroke-linecap="round" stroke-linejoin="round"/>
<path d="M17.0206 45.2783C15.6846 49.6743 11.9206 51.6423 8.87561 51.6423" stroke="#B01AA7" stroke-width="2" stroke-linecap="round" stroke-linejoin="round"/>
<path d="M8.43663 67.882H5.62463V41.625H51.1246V44.655" stroke="#B01AA7" stroke-width="2" stroke-linecap="round" stroke-linejoin="round"/>
<path d="M4.81163 64.257H1.99963V38H47.4996V41.03" stroke="#B01AA7" stroke-width="2" stroke-linecap="round" stroke-linejoin="round"/>
</svg>
