<svg width="71" height="72" viewBox="0 0 71 72" fill="none" xmlns="http://www.w3.org/2000/svg">
<rect width="71" height="71" fill="white"/>
<path fill-rule="evenodd" clip-rule="evenodd" d="M42.966 26.201V31.651C42.966 50.318 38.742 57.225 38.742 57.225C36.29 62.403 21.984 70.851 21.984 70.851C21.984 70.851 7.677 62.403 5.225 57.225C5.225 57.225 1 50.318 1 31.651V26.201C1 26.201 10.014 22 23.248 22C23.248 22 26.371 22.163 31.743 23.263C34.807 23.89 38.602 24.822 42.966 26.201Z" stroke="#B01AA7" stroke-width="2" stroke-linecap="round" stroke-linejoin="round"/>
<path fill-rule="evenodd" clip-rule="evenodd" d="M36.7877 29.4969L38.3007 29.9979V34.2079C38.3007 48.6259 35.0377 53.9609 35.0377 53.9609C33.1437 57.9599 22.0937 64.4849 22.0937 64.4849C22.0937 64.4849 18.8087 62.5459 15.5137 60.1329L11.1047 56.6439L9.14872 53.9609C9.14872 53.9609 5.88672 48.6259 5.88672 34.2079V29.9979C5.88672 29.9979 12.8487 26.7529 23.0707 26.7529C23.0707 26.7529 27.2037 27.1759 31.3527 28.0249L36.7877 29.4969Z" stroke="#B01AA7" stroke-width="2" stroke-linecap="round" stroke-linejoin="round"/>
<path d="M13.8203 43.4657L19.3363 48.9597L30.2143 38.0817" stroke="#B01AA7" stroke-width="2" stroke-linecap="round" stroke-linejoin="round"/>
</svg>
